{
    "asset" : {
        "generator" : "Khronos glTF Blender I/O v3.3.27",
        "version" : "2.0"
    },
    "extensionsUsed" : [
        "KHR_materials_specular",
        "KHR_materials_ior"
    ],
    "scene" : 0,
    "scenes" : [
        {
            "name" : "Scene",
            "nodes" : [
                0
            ]
        }
    ],
    "nodes" : [
        {
            "mesh" : 0,
            "name" : "Curve.001",
            "rotation" : [
                0.7061824798583984,
                0,
                0,
                0.7080299258232117
            ],
            "scale" : [
                16.628387451171875,
                16.628387451171875,
                16.628387451171875
            ],
            "translation" : [
                -0.027083881199359894,
                1.293592095375061,
                -0.011819995939731598
            ]
        }
    ],
    "materials" : [
        {
            "doubleSided" : true,
            "extensions" : {
                "KHR_materials_specular" : {
                    "specularColorFactor" : [
                        2.1841451786351787,
                        2.1841451786351787,
                        2.1841451786351787
                    ]
                },
                "KHR_materials_ior" : {
                    "ior" : 1.4500000476837158
                }
            },
            "name" : "Material.001",
            "pbrMetallicRoughness" : {
                "baseColorFactor" : [
                    0.800000011920929,
                    0.800000011920929,
                    0.800000011920929,
                    1
                ],
                "metallicFactor" : 0.46052631735801697,
                "roughnessFactor" : 0.5964912176132202
            }
        }
    ],
    "meshes" : [
        {
            "name" : "Curve.001",
            "primitives" : [
                {
                    "attributes" : {
                        "POSITION" : 0,
                        "NORMAL" : 1,
                        "TEXCOORD_0" : 2
                    },
                    "indices" : 3,
                    "material" : 0
                }
            ]
        }
    ],
    "accessors" : [
        {
            "bufferView" : 0,
            "componentType" : 5126,
            "count" : 7827,
            "max" : [
                0.16144710779190063,
                0.011580751277506351,
                0.07562536746263504
            ],
            "min" : [
                -0.023976679891347885,
                0,
                -0.037806324660778046
            ],
            "type" : "VEC3"
        },
        {
            "bufferView" : 1,
            "componentType" : 5126,
            "count" : 7827,
            "type" : "VEC3"
        },
        {
            "bufferView" : 2,
            "componentType" : 5126,
            "count" : 7827,
            "type" : "VEC2"
        },
        {
            "bufferView" : 3,
            "componentType" : 5123,
            "count" : 12780,
            "type" : "SCALAR"
        }
    ],
    "bufferViews" : [
        {
            "buffer" : 0,
            "byteLength" : 93924,
            "byteOffset" : 0,
            "target" : 34962
        },
        {
            "buffer" : 0,
            "byteLength" : 93924,
            "byteOffset" : 93924,
            "target" : 34962
        },
        {
            "buffer" : 0,
            "byteLength" : 62616,
            "byteOffset" : 187848,
            "target" : 34962
        },
        {
            "buffer" : 0,
            "byteLength" : 25560,
            "byteOffset" : 250464,
            "target" : 34963
        }
    ],
    "buffers" : [
        {
            "byteLength" : 276024,
            "uri" : "eugenia.bin"
        }
    ]
}
